<?xml version="1.0" encoding="UTF-8" standalone="no"?>
<!-- Created with Inkscape (http://www.inkscape.org/) -->

<svg
   xmlns:dc="http://purl.org/dc/elements/1.1/"
   xmlns:cc="http://creativecommons.org/ns#"
   xmlns:rdf="http://www.w3.org/1999/02/22-rdf-syntax-ns#"
   xmlns:svg="http://www.w3.org/2000/svg"
   xmlns="http://www.w3.org/2000/svg"
   xmlns:sodipodi="http://sodipodi.sourceforge.net/DTD/sodipodi-0.dtd"
   xmlns:inkscape="http://www.inkscape.org/namespaces/inkscape"
   width="744.09448819"
   height="1052.3622047"
   id="svg2"
   version="1.1"
   inkscape:version="0.48.4 r9939"
   sodipodi:docname="time-machine-logo.svg"
   inkscape:export-filename="/home/jfoley/Desktop/time-machine-logo.png"
   inkscape:export-xdpi="300.07999"
   inkscape:export-ydpi="300.07999">
  <sodipodi:namedview
     id="base"
     pagecolor="#ffffff"
     bordercolor="#666666"
     borderopacity="1.0"
     inkscape:pageopacity="0.0"
     inkscape:pageshadow="2"
     inkscape:zoom="1.3868133"
     inkscape:cx="397.17806"
     inkscape:cy="569.46781"
     inkscape:document-units="px"
     inkscape:current-layer="svg2"
     showgrid="false"
     inkscape:window-width="1600"
     inkscape:window-height="851"
     inkscape:window-x="0"
     inkscape:window-y="0"
     inkscape:window-maximized="1" />
  <defs
     id="defs4" />
  <metadata
     id="metadata7">
    <rdf:RDF>
      <cc:Work
         rdf:about="">
        <dc:format>image/svg+xml</dc:format>
        <dc:type
           rdf:resource="http://purl.org/dc/dcmitype/StillImage" />
        <dc:title></dc:title>
      </cc:Work>
    </rdf:RDF>
  </metadata>
  <rect
     style="fill:#ffffff;stroke:none"
     id="rect7318"
     width="434.27997"
     height="284.93481"
     x="217.46748"
     y="295.81113"
     inkscape:export-filename="/home/jfoley/Desktop/time-machine.png"
     inkscape:export-xdpi="300.07999"
     inkscape:export-ydpi="300.07999" />
  <path
     d="m 319.64489,506.55152 c 14.53536,-5.24539 21.80305,-14.98685 21.80305,-29.9737 0,-17.60953 -12.71845,-31.84706 -29.27259,-31.84706 -1.61505,0 -3.83573,0.18734 -5.85454,0.56201 l -5.24888,-22.10561 c 15.141,-12.92614 22.81244,-28.84972 22.81244,-49.26927 0,-22.66759 -10.29588,-35.59378 -15.34287,-35.59378 -7.87333,0 -19.98613,14.98688 -19.98613,39.52783 0,8.99209 -1.66493,21.62864 1.36328,31.74475 -18.37108,16.8602 -33.66409,30.82538 -33.66409,53.86763 0,24.91563 21.60119,45.7099 47.64369,45.7099 3.43196,0 4.91848,0.1771 8.55231,-0.75959 3.83572,15.92354 6.01709,24.92589 6.01709,27.92326 0,17.42221 -9.88156,19.70093 -16.74546,19.70093 -5.45078,0 -8.55762,-2.2378 -9.88685,-3.78764 9.48835,0 10.85164,-4.11114 10.85164,-11.97924 0,-6.55675 -5.2489,-13.30082 -13.52598,-13.30082 -8.27707,0 -14.1316,8.61743 -14.1316,15.54885 0,10.67812 11.91093,18.9209 25.03313,18.9209 13.92972,0 25.63878,-9.17947 25.63878,-22.66762 0,-11.42745 -5.65265,-30.91037 -6.05642,-32.22173 m -1.61504,-139.37773 c 0,11.98948 -10.37453,31.24416 -20.46852,36.86421 -1.81692,-3.93403 -1.5311,-10.0752 -1.5311,-15.13325 0,-15.36153 5.24359,-32.03442 15.53947,-32.03442 4.44135,0 6.46015,3.37206 6.46015,10.30346 m 14.53536,115.77345 c 0,9.36676 -4.84512,12.86425 -14.1316,16.61097 l -9.0846,-39.2786 c 13.52596,0 23.2162,8.61746 23.2162,22.66763 m -22.30637,18.86423 c -5.65263,1.31135 -5.55307,0.42155 -7.97563,0.42155 -17.96731,0 -36.33841,-15.85024 -36.33841,-28.46524 0,-15.54884 6.48893,-27.99487 27.68632,-44.48038 l 3.99827,18.58714 c -8.88271,2.99737 -15.53418,12.21775 -15.53418,24.5819 0,13.30082 11.91093,20.23224 18.57295,22.10561 l 1.61505,-0.93668 c -0.20188,0 -11.91092,-6.18209 -11.91092,-16.29821 0,-7.49341 3.82515,-13.35196 10.89095,-14.85066"
     id="path4690"
     inkscape:connector-curvature="0"
     style="font-size:288.53063965px;font-style:normal;font-weight:normal;line-height:125%;letter-spacing:0px;word-spacing:0px;fill:#000000;fill-opacity:1;stroke:none;font-family:Sans"
     sodipodi:nodetypes="cssccssscsscsscssssscccssccccccssccsccsc" />
  <text
     sodipodi:linespacing="98.000002%"
     id="text4754"
     y="430.72089"
     x="330.06934"
     style="font-size:61.2495575px;font-style:normal;font-weight:normal;line-height:98.00000191%;letter-spacing:0px;word-spacing:0px;fill:#000000;fill-opacity:1;stroke:none;font-family:Sans"
     xml:space="preserve"><tspan
       style="font-style:normal;font-variant:normal;font-weight:normal;font-stretch:normal;line-height:98.00000191%;fill:#000000;font-family:Pacifico;-inkscape-font-specification:Pacifico"
       y="430.72089"
       x="330.06934"
       id="tspan4756"
       sodipodi:role="line">Time</tspan><tspan
       style="font-style:normal;font-variant:normal;font-weight:normal;font-stretch:normal;line-height:98.00000191%;fill:#000000;font-family:Pacifico;-inkscape-font-specification:Pacifico"
       id="tspan2997"
       y="490.74545"
       x="330.06934"
       sodipodi:role="line"> Machine</tspan></text>
  <path
     style="fill:#000000;stroke:none"
     d="M 402.75 326.59375 C 391.86025 326.73936 380.9835 328.11044 370.09375 332.5 L 370.09375 349.53125 C 359.61339 351.40316 338.63661 357.33089 328.15625 362.625 L 327.5 370.46875 C 327.5 370.46875 457.19384 328.57553 527.28125 385.5625 C 586.76767 433.92997 580.34375 500.17466 580.34375 510 C 580.34375 510.46913 580.38634 510.8871 580.40625 511.3125 C 427.35276 492.24187 325.5 511.46875 325.5 511.46875 C 549.59625 503.38567 591.3125 531 591.3125 531 L 591.375 529.34375 C 599.47199 514.97797 604.50392 499.85194 605.90625 483.8125 L 590.84375 482.5 C 589.76134 474.85807 591.67403 465.23568 588.875 457.59375 L 603.9375 453.03125 C 602.92322 437.36182 592.904 416.95528 584.9375 406.5 L 572.5 413.0625 C 566.47396 402.05807 564.72952 398.42607 555.46875 389.46875 L 563.3125 379.65625 C 553.44782 362.49911 542.32056 354.63103 530.5625 350.84375 L 524.03125 363.28125 C 511.28766 353.93017 498.39761 351.08011 488 348.21875 L 491.28125 332.5 C 475.5152 327.19156 462.99737 326.76479 450.65625 326.59375 L 448.6875 341.65625 C 437.39865 339.7149 425.681 339.04616 412.65625 342.3125 L 407.4375 326.59375 C 405.88182 326.56994 404.30568 326.57295 402.75 326.59375 z "
     id="path7073" />
</svg>
